# xmcd
# 
# Track frame offsets:
#     150
#     17170
#     55192
#     67549
#     80659
#     111626
#     129677
#     144573
# 
# Disc length: 2394
# 
# Revision: 0
# Processed by: cddbd v1.5.2PL0 Copyright (c) Steve Scherf et al.
# Submitted via: BonkEnc v1.0.8
# 
DISCID=6e095808
DTITLE=And you will know us by the trail of dead - ...And you will know us by the trail of dead
DYEAR=0
DGENRE=
TTITLE0=01 - Richter Scale Madness
TTITLE1=02 - Novena Without Faith
TTITLE2=03 - Fake Fake Eyes
TTITLE3=04 - Half of What
TTITLE4=05 - Gargoyle Waiting
TTITLE5=06 - Prince With a Thousand Enemies
TTITLE6=07 - Ounce of Prevention
TTITLE7=08 - When We Begin to Steal...
EXTD=
EXTT0=
EXTT1=
EXTT2=
EXTT3=
EXTT4=
EXTT5=
EXTT6=
EXTT7=
PLAYORDER=
